<svg version="1.1" id="Layer_1" xmlns="http://www.w3.org/2000/svg" xmlns:xlink="http://www.w3.org/1999/xlink" x="0px" y="0px"
	 width="100%" viewBox="0 0 327 60" enable-background="new 0 0 327 60" xml:space="preserve">
<path fill="#040404" opacity="1.000000" stroke="none" 
	d="
M234.000000,61.000000 
	C156.000015,61.000000 78.500031,61.000000 1.000031,61.000000 
	C1.000021,41.000019 1.000021,21.000034 1.000010,1.000039 
	C109.999962,1.000026 218.999924,1.000026 327.999908,1.000013 
	C327.999939,20.999960 327.999939,40.999920 327.999969,60.999939 
	C296.833344,61.000000 265.666656,61.000000 234.000000,61.000000 
M303.450714,9.796246 
	C296.641876,9.796246 289.833038,9.796246 282.823090,9.796246 
	C282.823090,25.278835 282.823090,40.397648 282.823090,55.695549 
	C285.395203,55.695549 287.802368,55.695549 290.646118,55.695549 
	C290.646118,52.700016 290.646118,49.954231 290.646118,46.619186 
	C298.951996,46.619186 306.828247,46.619186 315.097473,46.619186 
	C315.097473,49.422874 315.097473,52.524067 315.097473,55.626450 
	C317.879028,55.626450 320.265045,55.626450 323.120300,55.626450 
	C322.900970,51.182697 322.171143,47.010490 322.646271,42.980339 
	C323.104004,39.098091 325.233093,35.433605 325.879822,31.548910 
	C327.586273,21.298780 321.547882,8.330835 303.450714,9.796246 
M129.004608,40.550659 
	C131.023636,35.861408 133.042648,31.172155 135.277313,25.982061 
	C139.856369,36.705658 144.151154,46.763504 148.805222,57.662785 
	C155.115829,41.449211 161.173355,25.885908 167.244095,10.288611 
	C161.921219,8.775723 158.665009,9.716435 156.947372,15.405193 
	C154.749588,22.684172 151.582764,29.670565 148.522156,37.588554 
	C143.939163,26.914175 139.763931,17.189554 135.268921,6.720105 
	C130.836090,17.039337 126.652580,26.778166 122.016212,37.571213 
	C118.867775,29.551054 115.682091,22.795059 113.605209,15.713857 
	C111.954857,10.086945 108.992073,8.608113 103.316925,10.271162 
	C109.305138,25.761286 115.293030,41.250576 121.601402,57.568874 
	C124.261620,51.559261 126.534882,46.423817 129.004608,40.550659 
M50.944237,47.468536 
	C50.944237,35.021397 50.944237,22.574253 50.944237,10.034657 
	C48.081509,10.034657 45.689247,10.034657 42.821716,10.034657 
	C42.821716,20.475859 42.821716,30.664948 42.821716,41.554981 
	C30.011436,29.403837 17.813009,17.833065 5.066432,5.742345 
	C5.066432,22.997097 5.066432,39.362030 5.066432,55.660278 
	C7.741084,55.660278 10.124283,55.660278 12.963159,55.660278 
	C12.963159,45.287773 12.963159,35.258507 12.963159,24.246563 
	C25.884298,36.519085 38.061584,48.085091 50.944145,60.320969 
	C50.944145,55.674889 50.944145,52.063377 50.944237,47.468536 
M187.986938,24.729198 
	C183.529221,38.927223 191.089737,53.097103 205.081970,56.768616 
	C217.954361,60.146294 231.628342,52.262657 234.387390,39.656590 
	C230.776840,39.944340 227.235565,38.412125 224.312408,42.655884 
	C219.857895,49.122803 212.425003,50.879936 205.331863,48.229229 
	C198.790421,45.784691 194.603973,39.503532 194.775314,32.390640 
	C194.943054,25.426756 199.633362,19.165171 206.244614,17.079042 
	C213.249161,14.868820 221.011414,17.158787 224.856781,23.884699 
	C227.543228,28.583551 230.900314,27.815699 236.022354,27.457211 
	C233.720551,23.468332 232.235641,19.751144 229.786621,16.846972 
	C218.554977,3.527949 196.395294,5.230918 187.986938,24.729198 
M76.519867,17.750273 
	C84.121429,17.750273 91.722992,17.750273 99.420212,17.750273 
	C99.420212,14.783860 99.420212,12.408857 99.420212,10.168434 
	C85.213669,10.168434 71.350349,10.168434 57.618217,10.168434 
	C57.618217,25.634874 57.618217,40.681160 57.618217,55.567780 
	C71.876060,55.567780 85.760864,55.567780 99.504044,55.567780 
	C99.504044,52.905777 99.504044,50.637222 99.504044,47.919312 
	C88.030235,47.919312 76.805473,47.919312 65.455307,47.919312 
	C65.455307,37.725163 65.455307,27.989126 65.455307,17.749144 
	C68.962006,17.749144 72.244675,17.749144 76.519867,17.750273 
M271.407257,13.812276 
	C257.738190,27.932322 244.069107,42.052368 230.763550,55.796902 
	C236.286362,57.402164 240.830475,54.918861 244.841171,50.231533 
	C246.678391,48.084347 249.274872,45.601704 251.808395,45.239574 
	C257.155975,44.475216 262.688812,45.006966 268.629913,45.006966 
	C268.629913,48.778847 268.629913,52.174587 268.629913,55.642376 
	C271.349030,55.642376 273.571320,55.642376 275.858398,55.642376 
	C275.858398,40.314453 275.858398,25.285662 275.858398,9.518815 
	C274.209930,11.094805 273.064026,12.190357 271.407257,13.812276 
M72.594193,34.992935 
	C80.366516,34.992935 88.138840,34.992935 95.789688,34.992935 
	C95.789688,32.011070 95.789688,29.608404 95.789688,27.216179 
	C86.361176,27.216179 77.257538,27.216179 68.006866,27.216179 
	C68.006866,29.823895 68.006866,32.219021 68.006866,34.992451 
	C69.352272,34.992451 70.485344,34.992451 72.594193,34.992935 
z"/>
<path fill="#F5F5F5" opacity="1.000000" stroke="none" 
	d="
M303.939697,9.796883 
	C321.547882,8.330835 327.586273,21.298780 325.879822,31.548910 
	C325.233093,35.433605 323.104004,39.098091 322.646271,42.980339 
	C322.171143,47.010490 322.900970,51.182697 323.120300,55.626450 
	C320.265045,55.626450 317.879028,55.626450 315.097473,55.626450 
	C315.097473,52.524067 315.097473,49.422874 315.097473,46.619186 
	C306.828247,46.619186 298.951996,46.619186 290.646118,46.619186 
	C290.646118,49.954231 290.646118,52.700016 290.646118,55.695549 
	C287.802368,55.695549 285.395203,55.695549 282.823090,55.695549 
	C282.823090,40.397648 282.823090,25.278835 282.823090,9.796246 
	C289.833038,9.796246 296.641876,9.796246 303.939697,9.796883 
M318.009369,25.942072 
	C317.108551,21.638412 314.646423,18.420559 310.224121,18.115379 
	C303.822754,17.673624 297.368225,18.002266 290.859558,18.002266 
	C290.859558,25.019829 290.859558,31.747433 290.859558,38.882957 
	C296.105286,38.882957 301.064789,38.923508 306.023376,38.874023 
	C314.780426,38.786636 317.927094,35.600704 318.009369,25.942072 
z"/>
<path fill="#F6F6F6" opacity="1.000000" stroke="none" 
	d="
M128.906372,40.919518 
	C126.534882,46.423817 124.261620,51.559261 121.601402,57.568874 
	C115.293030,41.250576 109.305138,25.761286 103.316925,10.271162 
	C108.992073,8.608113 111.954857,10.086945 113.605209,15.713857 
	C115.682091,22.795059 118.867775,29.551054 122.016212,37.571213 
	C126.652580,26.778166 130.836090,17.039337 135.268921,6.720105 
	C139.763931,17.189554 143.939163,26.914175 148.522156,37.588554 
	C151.582764,29.670565 154.749588,22.684172 156.947372,15.405193 
	C158.665009,9.716435 161.921219,8.775723 167.244095,10.288611 
	C161.173355,25.885908 155.115829,41.449211 148.805222,57.662785 
	C144.151154,46.763504 139.856369,36.705658 135.277313,25.982061 
	C133.042648,31.172155 131.023636,35.861408 128.906372,40.919518 
z"/>
<path fill="#F5F5F5" opacity="1.000000" stroke="none" 
	d="
M50.944191,47.960201 
	C50.944145,52.063377 50.944145,55.674889 50.944145,60.320969 
	C38.061584,48.085091 25.884298,36.519085 12.963159,24.246563 
	C12.963159,35.258507 12.963159,45.287773 12.963159,55.660278 
	C10.124283,55.660278 7.741084,55.660278 5.066432,55.660278 
	C5.066432,39.362030 5.066432,22.997097 5.066432,5.742345 
	C17.813009,17.833065 30.011436,29.403837 42.821716,41.554981 
	C42.821716,30.664948 42.821716,20.475859 42.821716,10.034657 
	C45.689247,10.034657 48.081509,10.034657 50.944237,10.034657 
	C50.944237,22.574253 50.944237,35.021397 50.944191,47.960201 
z"/>
<path fill="#F4F4F4" opacity="1.000000" stroke="none" 
	d="
M188.092133,24.352180 
	C196.395294,5.230918 218.554977,3.527949 229.786621,16.846972 
	C232.235641,19.751144 233.720551,23.468332 236.022354,27.457211 
	C230.900314,27.815699 227.543228,28.583551 224.856781,23.884699 
	C221.011414,17.158787 213.249161,14.868820 206.244614,17.079042 
	C199.633362,19.165171 194.943054,25.426756 194.775314,32.390640 
	C194.603973,39.503532 198.790421,45.784691 205.331863,48.229229 
	C212.425003,50.879936 219.857895,49.122803 224.312408,42.655884 
	C227.235565,38.412125 230.776840,39.944340 234.387390,39.656590 
	C231.628342,52.262657 217.954361,60.146294 205.081970,56.768616 
	C191.089737,53.097103 183.529221,38.927223 188.092133,24.352180 
z"/>
<path fill="#F4F4F4" opacity="1.000000" stroke="none" 
	d="
M76.023605,17.749708 
	C72.244675,17.749144 68.962006,17.749144 65.455307,17.749144 
	C65.455307,27.989126 65.455307,37.725163 65.455307,47.919312 
	C76.805473,47.919312 88.030235,47.919312 99.504044,47.919312 
	C99.504044,50.637222 99.504044,52.905777 99.504044,55.567780 
	C85.760864,55.567780 71.876060,55.567780 57.618217,55.567780 
	C57.618217,40.681160 57.618217,25.634874 57.618217,10.168434 
	C71.350349,10.168434 85.213669,10.168434 99.420212,10.168434 
	C99.420212,12.408857 99.420212,14.783860 99.420212,17.750273 
	C91.722992,17.750273 84.121429,17.750273 76.023605,17.749708 
z"/>
<path fill="#F8F8F8" opacity="1.000000" stroke="none" 
	d="
M271.662659,13.549093 
	C273.064026,12.190357 274.209930,11.094805 275.858398,9.518815 
	C275.858398,25.285662 275.858398,40.314453 275.858398,55.642376 
	C273.571320,55.642376 271.349030,55.642376 268.629913,55.642376 
	C268.629913,52.174587 268.629913,48.778847 268.629913,45.006966 
	C262.688812,45.006966 257.155975,44.475216 251.808395,45.239574 
	C249.274872,45.601704 246.678391,48.084347 244.841171,50.231533 
	C240.830475,54.918861 236.286362,57.402164 230.763550,55.796902 
	C244.069107,42.052368 257.738190,27.932322 271.662659,13.549093 
M267.632507,36.821884 
	C268.092834,33.981113 268.553131,31.140343 269.117920,27.654856 
	C264.878052,30.649483 261.664764,32.919029 258.451477,35.188576 
	C259.018066,35.909412 259.584686,36.630245 260.151276,37.351082 
	C262.378784,37.231892 264.606293,37.112705 267.632507,36.821884 
z"/>
<path fill="#FEFEFE" opacity="1.000000" stroke="none" 
	d="
M72.106300,34.992691 
	C70.485344,34.992451 69.352272,34.992451 68.006866,34.992451 
	C68.006866,32.219021 68.006866,29.823895 68.006866,27.216179 
	C77.257538,27.216179 86.361176,27.216179 95.789688,27.216179 
	C95.789688,29.608404 95.789688,32.011070 95.789688,34.992935 
	C88.138840,34.992935 80.366516,34.992935 72.106300,34.992691 
z"/>
<path fill="#030303" opacity="1.000000" stroke="none" 
	d="
M318.039673,26.358532 
	C317.927094,35.600704 314.780426,38.786636 306.023376,38.874023 
	C301.064789,38.923508 296.105286,38.882957 290.859558,38.882957 
	C290.859558,31.747433 290.859558,25.019829 290.859558,18.002266 
	C297.368225,18.002266 303.822754,17.673624 310.224121,18.115379 
	C314.646423,18.420559 317.108551,21.638412 318.039673,26.358532 
z"/>
<path fill="#252525" opacity="1.000000" stroke="none" 
	d="
M267.233154,36.907700 
	C264.606293,37.112705 262.378784,37.231892 260.151276,37.351082 
	C259.584686,36.630245 259.018066,35.909412 258.451477,35.188576 
	C261.664764,32.919029 264.878052,30.649483 269.117920,27.654856 
	C268.553131,31.140343 268.092834,33.981113 267.233154,36.907700 
z"/>
</svg>